<svg width="1600" height="520" viewBox="0 0 1600 520" fill="none" xmlns="http://www.w3.org/2000/svg" role="img" aria-labelledby="title desc">
  <title id="title">AgentOS project banner</title>
  <desc id="desc">A professional banner showing AgentOS turning project ideas into structured documentation and agent skills.</desc>
  <rect width="1600" height="520" fill="#0B1020"/>
  <rect x="70" y="64" width="1460" height="392" rx="28" fill="#10192F" stroke="#263B68" stroke-width="2"/>
  <path d="M70 170H1530" stroke="#263B68" stroke-width="2"/>
  <circle cx="112" cy="116" r="12" fill="#FF6B6B"/>
  <circle cx="150" cy="116" r="12" fill="#F7C948"/>
  <circle cx="188" cy="116" r="12" fill="#2DD4BF"/>
  <text x="242" y="126" fill="#B9C6E3" font-family="Inter, ui-sans-serif, system-ui, -apple-system, BlinkMacSystemFont, Segoe UI, sans-serif" font-size="28" font-weight="600">agentos init my-project</text>

  <g filter="url(#softShadow)">
    <rect x="118" y="226" width="292" height="154" rx="18" fill="#15223D" stroke="#365589"/>
    <text x="150" y="270" fill="#F8FAFC" font-family="Inter, ui-sans-serif, system-ui" font-size="24" font-weight="700">Rough idea</text>
    <text x="150" y="310" fill="#94A3B8" font-family="Inter, ui-sans-serif, system-ui" font-size="20">A product, tool, app,</text>
    <text x="150" y="340" fill="#94A3B8" font-family="Inter, ui-sans-serif, system-ui" font-size="20">agent, repo, or game</text>
  </g>

  <path d="M442 303H548" stroke="#38BDF8" stroke-width="4" stroke-linecap="round"/>
  <path d="M528 283L548 303L528 323" stroke="#38BDF8" stroke-width="4" stroke-linecap="round" stroke-linejoin="round"/>

  <g filter="url(#softShadow)">
    <rect x="582" y="204" width="436" height="198" rx="22" fill="#0F766E"/>
    <rect x="608" y="230" width="384" height="146" rx="14" fill="#123F47" stroke="#5EEAD4"/>
    <text x="636" y="274" fill="#ECFEFF" font-family="Inter, ui-sans-serif, system-ui" font-size="26" font-weight="800">AgentOS</text>
    <text x="636" y="316" fill="#CCFBF1" font-family="Inter, ui-sans-serif, system-ui" font-size="20">Structured schemas</text>
    <text x="636" y="346" fill="#CCFBF1" font-family="Inter, ui-sans-serif, system-ui" font-size="20">OpenAI generation</text>
  </g>

  <path d="M1052 303H1158" stroke="#38BDF8" stroke-width="4" stroke-linecap="round"/>
  <path d="M1138 283L1158 303L1138 323" stroke="#38BDF8" stroke-width="4" stroke-linecap="round" stroke-linejoin="round"/>

  <g filter="url(#softShadow)">
    <rect x="1190" y="204" width="282" height="198" rx="18" fill="#15223D" stroke="#365589"/>
    <text x="1222" y="248" fill="#F8FAFC" font-family="Inter, ui-sans-serif, system-ui" font-size="24" font-weight="700">Project Brain</text>
    <rect x="1222" y="280" width="208" height="14" rx="7" fill="#38BDF8"/>
    <rect x="1222" y="312" width="178" height="14" rx="7" fill="#2DD4BF"/>
    <rect x="1222" y="344" width="222" height="14" rx="7" fill="#A78BFA"/>
    <text x="1222" y="384" fill="#94A3B8" font-family="Inter, ui-sans-serif, system-ui" font-size="18">PRD · AGENTS.md · Skills</text>
  </g>

  <text x="118" y="442" fill="#64748B" font-family="Inter, ui-sans-serif, system-ui" font-size="22">AI-ready project setup for Codex, Cursor, and coding agents</text>
  <defs>
    <filter id="softShadow" x="80" y="170" width="1440" height="270" filterUnits="userSpaceOnUse" color-interpolation-filters="sRGB">
      <feDropShadow dx="0" dy="18" stdDeviation="18" flood-color="#020617" flood-opacity="0.35"/>
    </filter>
  </defs>
</svg>
